<svg width="112" height="28" viewBox="0 0 112 28" fill="none" xmlns="http://www.w3.org/2000/svg">
<path fill-rule="evenodd" clip-rule="evenodd" d="M16.6068 20.7683C15.4684 20.1699 14.5153 19.2716 13.8503 18.1708C13.1853 17.0699 12.8338 15.8082 12.8338 14.5221C12.8338 13.236 13.1853 11.9743 13.8503 10.8734C14.5153 9.77252 15.4684 8.87431 16.6068 8.27582C17.8286 7.66966 19.174 7.35425 20.5378 7.35425C21.9017 7.35425 23.2471 7.66966 24.4688 8.27582C25.6088 8.87297 26.5636 9.77071 27.2298 10.8718C27.896 11.9728 28.2482 13.2352 28.2482 14.5221C28.2482 15.809 27.896 17.0714 27.2298 18.1724C26.5636 19.2735 25.6088 20.1712 24.4688 20.7683C23.2482 21.3782 21.9023 21.6957 20.5378 21.6957C19.1733 21.6957 17.8275 21.3782 16.6068 20.7683ZM22.4311 17.9922C22.9982 17.6638 23.4618 17.1829 23.7692 16.6042C24.1097 15.974 24.28 15.2659 24.2634 14.5498C24.2787 13.8304 24.1085 13.1191 23.7692 12.4844C23.4587 11.9079 22.9958 11.4278 22.4311 11.0963C21.853 10.7745 21.2023 10.6056 20.5406 10.6056C19.8789 10.6056 19.2282 10.7745 18.6501 11.0963C18.0851 11.4292 17.6208 11.9089 17.3064 12.4844C16.9716 13.1205 16.8035 13.8311 16.8178 14.5498C16.8022 15.2651 16.9705 15.9725 17.3064 16.6042C17.6175 17.1821 18.0826 17.6625 18.6501 17.9922C19.2263 18.3198 19.8778 18.492 20.5406 18.492C21.2034 18.492 21.8549 18.3198 22.4311 17.9922ZM2.55958 21.2792C1.64712 21.0643 0.780336 20.6883 0 20.1688L1.27702 17.2927C2.6413 18.1548 4.21626 18.6254 5.82984 18.653C7.32895 18.653 8.05074 18.2755 8.05074 17.5426C8.04992 17.3478 7.98781 17.1583 7.8732 17.0008C7.75859 16.8434 7.59731 16.726 7.41223 16.6653C6.74584 16.4015 6.0562 16.2008 5.35235 16.0657C4.48082 15.883 3.62211 15.6438 2.78167 15.3495C2.08994 15.0955 1.47322 14.6717 0.988297 14.1169C0.46338 13.4759 0.196145 12.6623 0.238746 11.8349C0.23057 11.0236 0.470818 10.2293 0.927226 9.55848C1.44571 8.83709 2.16077 8.28007 2.9871 7.95388C4.04622 7.53356 5.17932 7.33149 6.31844 7.35978C7.22113 7.35797 8.121 7.46045 9.00017 7.66517C9.81716 7.84394 10.6018 8.14731 11.3266 8.56463L10.1439 11.4629C8.97916 10.7952 7.66617 10.4288 6.32399 10.3969C5.7362 10.3538 5.14801 10.4749 4.62501 10.7466C4.46602 10.8358 4.33346 10.9655 4.24082 11.1225C4.14818 11.2795 4.09875 11.4583 4.09755 11.6406C4.10298 11.8266 4.16635 12.0063 4.27883 12.1546C4.3913 12.3029 4.54726 12.4124 4.72495 12.4678C5.38356 12.7158 6.06389 12.9017 6.75707 13.0231C7.64368 13.1983 8.51596 13.4396 9.36662 13.7449C10.0556 13.9959 10.6717 14.4137 11.16 14.9608C11.6932 15.5977 11.9651 16.4133 11.9207 17.2428C11.9215 18.0366 11.6793 18.8116 11.2266 19.4637C10.7053 20.1846 9.98862 20.7413 9.16119 21.0683C8.10349 21.4941 6.96963 21.6982 5.82984 21.6679C4.72735 21.6838 3.62764 21.5531 2.55958 21.2792ZM33.9409 7.63177H30.0543V21.4235H42.0249V18.3309H33.9409V7.63177Z" fill="#002FA8"/>
<path fill-rule="evenodd" clip-rule="evenodd" d="M84.6772 20.7443C83.5388 20.1458 82.5856 19.2476 81.9207 18.1467C81.2557 17.0458 80.9042 15.7842 80.9042 14.498C80.9042 13.2119 81.2557 11.9502 81.9207 10.8493C82.5856 9.74847 83.5388 8.85026 84.6772 8.25177C85.899 7.64561 87.2443 7.3302 88.6082 7.3302C89.972 7.3302 91.3174 7.64561 92.5392 8.25177C93.6792 8.84892 94.634 9.74666 95.3002 10.8477C95.9664 11.9488 96.3186 13.2111 96.3186 14.498C96.3186 15.7849 95.9664 17.0473 95.3002 18.1484C94.634 19.2494 93.6792 20.1471 92.5392 20.7443C91.3185 21.3542 89.9727 21.6717 88.6082 21.6717C87.2437 21.6717 85.8978 21.3542 84.6772 20.7443ZM90.5015 17.9682C91.0686 17.6397 91.5322 17.1588 91.8396 16.5801C92.1775 15.9489 92.3476 15.2416 92.3337 14.5258C92.3463 13.8066 92.1763 13.096 91.8396 12.4604C91.5291 11.8839 91.0662 11.4037 90.5015 11.0723C89.9227 10.7494 89.2709 10.58 88.6082 10.58C87.9454 10.58 87.2937 10.7494 86.7149 11.0723C86.1514 11.4053 85.6889 11.8851 85.3768 12.4604C85.042 13.0965 84.8739 13.8071 84.8882 14.5258C84.8726 15.2411 85.0408 15.9484 85.3768 16.5801C85.6859 17.1576 86.1491 17.6381 86.7149 17.9682C87.2921 18.2957 87.9445 18.4679 88.6082 18.4679C89.2719 18.4679 89.9242 18.2957 90.5015 17.9682ZM68.2093 20.7443C67.0709 20.1458 66.1177 19.2476 65.4527 18.1467C64.7878 17.0458 64.4363 15.7842 64.4363 14.498C64.4363 13.2119 64.7878 11.9502 65.4527 10.8494C66.1177 9.74848 67.0709 8.85027 68.2093 8.25178C69.431 7.64562 70.7764 7.33021 72.1403 7.33021C73.5041 7.33021 74.8495 7.64562 76.0712 8.25178C77.2112 8.84893 78.166 9.74666 78.8323 10.8477C79.4985 11.9488 79.8506 13.2111 79.8506 14.498C79.8506 15.785 79.4985 17.0473 78.8323 18.1484C78.166 19.2494 77.2112 20.1472 76.0712 20.7443C74.8506 21.3542 73.5048 21.6717 72.1403 21.6717C70.7757 21.6717 69.4299 21.3542 68.2093 20.7443ZM74.0336 17.9682C74.6006 17.6397 75.0642 17.1589 75.3717 16.5801C75.7096 15.949 75.8797 15.2416 75.8658 14.5258C75.8784 13.8066 75.7084 13.096 75.3717 12.4604C75.0611 11.8839 74.5983 11.4037 74.0336 11.0723C73.4548 10.7494 72.803 10.58 72.1403 10.58C71.4775 10.58 70.8258 10.7494 70.2469 11.0723C69.6835 11.4053 69.221 11.8851 68.9089 12.4604C68.5721 13.096 68.4021 13.8066 68.4147 14.5258C68.4008 15.2416 68.571 15.949 68.9089 16.5801C69.218 17.1576 69.6812 17.6381 70.2469 17.9682C70.8242 18.2957 71.4766 18.4679 72.1403 18.4679C72.804 18.4679 73.4563 18.2957 74.0336 17.9682ZM101.989 17.946L103.444 16.3914L107.386 21.3995H111.9L105.97 13.7152L111.606 7.60772H107.33L101.989 13.3432V7.60772H98.1026V21.3995H101.989V17.946Z" fill="#00BFC8"/>
<path d="M52.0413 11.9607V27.1572C52.0413 27.1572 55.578 17.6462 61.8354 13.9429V2C55.578 5.67558 52.0413 11.9607 52.0413 11.9607Z" fill="#00BFC8"/>
<path d="M42.2471 2.02429V13.9893C48.5044 17.6927 52.0412 27.2037 52.0412 27.2037V11.985C52.0412 11.985 48.5044 5.69987 42.2471 2.02429Z" fill="#002FA8"/>
</svg>
